<?xml version="1.0" encoding="utf-8"?>
<!DOCTYPE svg PUBLIC "-//W3C//DTD SVG 1.0//EN" "http://www.w3.org/TR/2001/REC-SVG-20010904/DTD/svg10.dtd">
<svg version="1.0" id="Ebene_1" xmlns="http://www.w3.org/2000/svg" xmlns:xlink="http://www.w3.org/1999/xlink" x="0px" y="0px"
	 width="65.5px" height="41.607px" viewBox="0 0 65.5 41.607" enable-background="new 0 0 65.5 41.607" xml:space="preserve">
<path id="path14-2" fill="#1B1B1B" d="M58.291,17.096V9.887h-5.149v7.209h-7.415v5.15h7.415v7.414
	h5.149v-7.414H65.5v-5.15H58.291z M20.804,16.684v8.239c0,0,7.993-0.011,11.247-0.011c-1.763,5.342-4.503,8.25-11.247,8.25
	c-6.825,0-12.152-5.533-12.152-12.358S13.979,8.445,20.804,8.445c3.608,0,5.939,1.268,8.077,3.036
	c1.711-1.711,1.568-1.955,5.922-6.066C31.107,2.051,26.195,0,20.804,0C9.314,0,0,9.314,0,20.804s9.314,20.804,20.804,20.804
	c17.174,0,21.371-14.954,19.979-24.923C36.718,16.684,20.804,16.684,20.804,16.684"/>
</svg>
