<?xml version="1.0" encoding="utf-8"?>
<!DOCTYPE svg PUBLIC "-//W3C//DTD SVG 1.1//EN" "http://www.w3.org/Graphics/SVG/1.1/DTD/svg11.dtd">
<svg version="1.1" id="Ebene_1" xmlns="http://www.w3.org/2000/svg" xmlns:xlink="http://www.w3.org/1999/xlink" x="0px" y="0px"
	 width="50.792px" height="41.274px" viewBox="0 0 50.792 41.274" enable-background="new 0 0 50.792 41.274" xml:space="preserve">
<path id="path22" fill="#1B1B1B" d="M50.792,4.885c-1.868,0.829-3.877,1.389-5.984,1.642
	c2.151-1.29,3.803-3.332,4.581-5.765c-2.014,1.194-4.243,2.061-6.617,2.528C40.872,1.266,38.163,0,35.166,0
	c-5.755,0-10.419,4.665-10.419,10.419c0,0.817,0.091,1.613,0.27,2.375C16.356,12.36,8.679,8.211,3.539,1.907
	c-0.896,1.538-1.41,3.328-1.41,5.238c0,3.616,1.839,6.804,4.635,8.673c-1.708-0.053-3.314-0.522-4.72-1.303
	c-0.002,0.044-0.002,0.087-0.002,0.131c0,5.049,3.593,9.259,8.358,10.218c-0.873,0.238-1.794,0.363-2.744,0.363
	c-0.672,0-1.323-0.063-1.961-0.186c1.327,4.14,5.175,7.152,9.734,7.236c-3.568,2.796-8.061,4.461-12.943,4.461
	c-0.84,0-1.67-0.05-2.486-0.146c4.613,2.956,10.09,4.681,15.975,4.681c19.166,0,29.645-15.877,29.645-29.647
	c0-0.451-0.01-0.9-0.029-1.347c2.035-1.47,3.802-3.305,5.199-5.395"/>
</svg>
